<?xml version="1.0" encoding="UTF-8"?>
<svg id="Layer_1" data-name="Layer 1" xmlns="http://www.w3.org/2000/svg" viewBox="100 380 850 165">
  <defs>
    <style>
      .cls-1 {
        fill: #fff;
      }
    </style>
  </defs>
  <g>
    <g>
      <path class="cls-1" d="M153.82,472.51l5.59,4.95c13.96,12.21,27.91,24.42,41.87,36.63-4.1.03-8.25.04-12.44.02-4.03-.02-8.02-.06-11.98-.12l-35.72-31.73-16.07,12.64-.08,19.13-16.97.06v-78.3s16.92-.03,16.92-.03v40.39s14.89-11.91,14.89-11.91l15.12-11.52,20.97-17.07,21.43.13c-1.66,1.74-3.43,3.52-5.32,5.32-1.86,1.77-3.7,3.43-5.49,4.98-10.91,8.8-21.83,17.61-32.74,26.41Z"/>
      <path class="cls-1" d="M317.07,466.32c-1.97-3.69-3.92-6.62-6.39-10.14l-17.49,32-13.75,25.77c-5.33.03-10.65.05-15.98.08-1.52-.04-2.5-.06-2.5-.06,0,0,.66-1.1,1.69-2.82,13.98-25.1,27.96-50.21,41.94-75.31l14.23-.03,21.49,39.71c7,12.93,13.99,25.87,20.99,38.8-6.31-.08-12.61-.16-18.92-.24l-5.74-11.06-19.59-36.7Z"/>
    </g>
    <polygon class="cls-1" points="649.36 500.4 649.55 514.04 576.77 514.08 576.8 435.71 591.83 435.96 591.92 500.41 649.36 500.4"/>
    <rect class="cls-1" x="685.22" y="467.38" width="78.4" height="15.03" transform="translate(249.09 1199.02) rotate(-89.97)"/>
    <g>
      <rect class="cls-1" x="432.9" y="500.39" width="73.58" height="13.72"/>
      <rect class="cls-1" x="432.93" y="435.69" width="73.53" height="13.03"/>
      <rect class="cls-1" x="457.49" y="442.77" width="13.8" height="62.95" transform="translate(-9.92 938.57) rotate(-89.99)"/>
    </g>
  </g>
  <g>
    <path class="cls-1" d="M894,514.09c-3.1.05-6.25.07-9.45.06-4.17,0-8.27-.07-12.29-.17l-29.24-28.59-9.31,8.52-20.72,20.23c-3.28,0-6.58-.03-9.9-.07-3.44-.04-6.84-.1-10.22-.17,12.92-13.07,25.84-26.14,38.77-39.21l-4.9-4.54c-11.33-11.36-22.65-22.73-33.98-34.09,3.34.03,6.74.03,10.18,0,3.84-.03,7.61-.1,11.33-.2,3.45,2.74,6.88,6.78,10.12,9.92l18.99,18.43,15.82-15.11,13.28-13.18c2.69.09,5.42.16,8.18.21,4.35.08,8.62.1,12.82.07-4.95,5.9-9.61,9.59-14.38,14.28l-24.43,24.03c13.12,13.19,26.23,26.38,39.35,39.56Z"/>
    <path class="cls-1" d="M921.91,396.74c-2.33,17.93-4.22,19.82-22.15,22.15,17.93,2.33,19.82,4.22,22.15,22.15,2.33-17.93,4.22-19.82,22.15-22.15-17.93-2.33-19.82-4.22-22.15-22.15Z"/>
  </g>
</svg>