<?xml version="1.0" encoding="UTF-8"?>
<svg id="Layer_1" data-name="Layer 1" xmlns="http://www.w3.org/2000/svg" viewBox="0 0 1024 1024">
  <path d="M459.94,551.87l27.26,24.14c68.1,59.57,136.2,119.15,204.3,178.72-20.15.05-40.45.02-60.89-.11-19.59-.12-39.04-.31-58.35-.58l-174.04-154.61-78.29,61.58-.4,93.2-82.69.29-.06-381.54,82.52-.15.06,196.81,72.51-58.01,73.68-56.12,102.19-83.15,104.42.64c-17.76,15.68-35.52,31.37-53.28,47.05-52.97,43.94-105.95,87.89-158.92,131.83Z"/>
  <path d="M746.24,232.8c-8.79,67.63-15.91,74.75-83.54,83.54,67.63,8.79,74.75,15.91,83.54,83.54,8.79-67.63,15.91-74.75,83.54-83.54-67.63-8.79-74.75-15.91-83.54-83.54Z"/>
</svg>